<?xml version="1.0" encoding="UTF-8"?>
<svg id="Layer_2" data-name="Layer 2" xmlns="http://www.w3.org/2000/svg" viewBox="0 0 137 41.03">
  <defs>
    <style>
      .cls-1 {
        stroke-width: 0px;
      }
    </style>
  </defs>
  <g id="Layer_1-2" data-name="Layer 1">
    <g>
      <path class="cls-1" d="m128.75.78l8.25,39.65h-9.41s-.92-6.94-.92-6.94h-7.14s-.92,6.94-.92,6.94h-9.55S117.46.78,117.46.78h11.29Zm-5.69,8.11l-2.46,16.82h5.02s-2.46-16.82-2.46-16.82h-.1Z"/>
      <path class="cls-1" d="m105.79.78v39.65h-13.56c-1.87,0-3.46-.29-4.78-.86-1.32-.57-2.39-1.38-3.21-2.41s-1.42-2.28-1.81-3.72c-.39-1.44-.58-3.02-.58-4.72,0-1.04.12-2.06.36-3.08.24-1.02.62-1.95,1.13-2.8.51-.85,1.17-1.56,1.98-2.14.8-.57,1.77-.92,2.89-1.03v-.11c-.96-.22-1.79-.61-2.46-1.17-.68-.55-1.23-1.23-1.66-2.03-.43-.79-.76-1.68-.96-2.66-.21-.98-.31-1.99-.31-3.03,0-3,.76-5.4,2.29-7.19,1.53-1.8,3.9-2.69,7.12-2.69h13.56Zm-8.97,15.55v-8.11s-2.17,0-2.17,0c-.93,0-1.64.41-2.12,1.22-.48.81-.72,1.78-.72,2.89,0,1.07.24,2.01.72,2.8.48.8,1.19,1.19,2.12,1.19h2.17Zm0,16.66v-9.66s-2.51,0-2.51,0c-.84,0-1.58.41-2.22,1.22-.64.81-.96,2-.96,3.55,0,1.67.32,2.9.96,3.69.64.8,1.38,1.19,2.22,1.19h2.51Z"/>
      <path class="cls-1" d="m77.91,20.6c0,3.7-.21,6.86-.63,9.47-.42,2.61-1.11,4.74-2.07,6.39s-2.24,2.82-3.81,3.53-3.51,1.06-5.79,1.06-4.21-.35-5.79-1.06c-1.58-.7-2.85-1.88-3.81-3.53s-1.66-3.78-2.07-6.39c-.42-2.61-.63-5.77-.63-9.47s.21-6.86.63-9.47c.42-2.61,1.11-4.74,2.07-6.39.96-1.65,2.24-2.85,3.81-3.61C61.39.38,63.32,0,65.61,0s4.21.38,5.79,1.14c1.58.76,2.85,1.96,3.81,3.61.96,1.65,1.66,3.78,2.07,6.39s.63,5.77.63,9.47Zm-9.26,0c0-2.66-.03-4.88-.1-6.63-.06-1.76-.2-3.16-.41-4.19-.21-1.04-.51-1.76-.92-2.17-.4-.41-.94-.61-1.62-.61s-1.21.2-1.62.61c-.4.41-.71,1.13-.92,2.17-.21,1.04-.35,2.43-.41,4.19-.06,1.76-.1,3.97-.1,6.63s.03,4.88.1,6.64c.06,1.76.2,3.16.41,4.19.21,1.04.51,1.76.92,2.17.4.41.94.61,1.62.61s1.21-.2,1.62-.61c.4-.41.71-1.13.92-2.17.21-1.04.35-2.43.41-4.19.06-1.76.1-3.97.1-6.64Z"/>
      <path class="cls-1" d="m39.99.78h8.97v25.99c0,2.78-.26,5.09-.77,6.94-.51,1.85-1.26,3.33-2.24,4.44s-2.2,1.87-3.67,2.28c-1.46.41-3.13.61-4.99.61s-3.57-.2-5.02-.61c-1.45-.41-2.66-1.17-3.64-2.28-.98-1.11-1.73-2.59-2.24-4.44-.51-1.85-.77-4.16-.77-6.94V.78h8.97v28.6c0,1.93.24,3.21.72,3.86.48.65,1.14.97,1.98.97s1.5-.32,1.98-.97c.48-.65.72-1.93.72-3.86V.78Z"/>
      <path class="cls-1" d="m15.73,9.55v30.87H6.75V9.55s-6.75,0-6.75,0V.78h22.38v8.77h-6.66Z"/>
    </g>
  </g>
</svg>