<?xml version="1.0" encoding="UTF-8"?>
<svg id="Layer_2" data-name="Layer 2" xmlns="http://www.w3.org/2000/svg" viewBox="0 0 490.36 258.63">
  <defs>
    <style>
      .cls-1 {
        fill: none;
      }

      .cls-1, .cls-2 {
        stroke: #fff;
        stroke-miterlimit: 10;
        stroke-width: 3px;
      }

      .cls-2 {
        fill: #fff;
      }
    </style>
  </defs>
  <g id="Layer_1-2" data-name="Layer 1">
    <g>
      <g>
        <path class="cls-1" d="m229,1.79h0c.14,0,.29,0,.43,0h0c-.14,0-.28,0-.43,0h0Z"/>
        <path class="cls-1" d="m229,256.85c.14,0,.29,0,.43,0h0c-.14,0-.29,0-.43,0h0Z"/>
        <path class="cls-1" d="m226.87,254.93h-.01c1.57,0,3.14,0,4.71,0h0c-1.57,0-3.13,0-4.7,0h0Z"/>
        <path class="cls-1" d="m226.86,3.7c1.57,0,3.14,0,4.71,0h0c-1.57,0-3.14,0-4.71,0h0Z"/>
        <path class="cls-1" d="m229,1.79c.14,0,.29,0,.43,0h0c-.14,0-.29,0-.43,0h0Z"/>
        <path class="cls-1" d="m229,256.85h0c.14,0,.29,0,.43,0h0c-.14,0-.28,0-.43,0h0Z"/>
        <path class="cls-1" d="m226.86,254.93c1.57,0,3.14,0,4.71,0h0c-1.57,0-3.14,0-4.71,0h0Z"/>
        <path class="cls-1" d="m226.87,3.7h-.01c1.57,0,3.14,0,4.71,0h0c-1.57,0-3.13,0-4.7,0h0Z"/>
        <path class="cls-1" d="m229,256.85h0s0,0,0,0h0s0,0,0,0h0s0,0,.01,0h.01s0,0,.01,0h.02s.01,0,.02,0h.02s.01,0,.02,0h.06s.01,0,.02,0h.04s.01,0,.02,0h.02s.01,0,.02,0h.03s.01,0,.02,0h.01s0,0,.01,0h.01s0,0,0,0h0s0,0,0,0h0s0,0,0,0h0s0,0,0,0h0s0,0-.01,0h-.01s0,0-.01,0h-.02s-.01,0-.02,0h-.02s-.01,0-.02,0h-.04s-.01,0-.02,0h-.08s-.01,0-.02,0h-.02s-.01,0-.02,0h-.02s-.01,0-.02,0h-.01s0,0-.01,0h-.01s0,0,0,0h0s0,0,0,0h0s0,0,0,0h0Z"/>
        <path class="cls-1" d="m226.86,3.7h.01s.02,0,.03,0h.06s.05,0,.08,0h.1s.08,0,.12,0h.14c.05,0,.11,0,.16,0h.18c.06,0,.13,0,.19,0h.2c.07,0,.14,0,.21,0h.22c.08,0,.15,0,.23,0h.23c.08,0,.16,0,.23,0h.23c.08,0,.15,0,.23,0h.23c.07,0,.15,0,.22,0h.21c.07,0,.13,0,.2,0h.18c.06,0,.11,0,.17,0h.15s.09,0,.13,0h.11s.06,0,.09,0h.07s.03,0,.05,0h.02s0,0,0,0h-.02s-.03,0-.05,0h-.07s-.06,0-.09,0h-.11s-.09,0-.13,0h-.15c-.06,0-.11,0-.17,0h-.18c-.07,0-.13,0-.2,0h-.21c-.07,0-.15,0-.22,0h-.23c-.08,0-.15,0-.23,0h-.23c-.08,0-.16,0-.23,0h-.23c-.08,0-.15,0-.23,0h-.22c-.07,0-.14,0-.21,0h-.2c-.06,0-.13,0-.19,0h-.18c-.05,0-.11,0-.16,0h-.14s-.08,0-.12,0h-.1s-.05,0-.08,0h-.06s-.02,0-.04,0h-.01Z"/>
        <path class="cls-1" d="m133.93,244.79c52.78.86,105.64.27,158.43.16,10.68-.02,21.36,0,32.04-.15,0,0-.01-.01-.02-.02-53.85-.71-107.76-.27-161.61-.14-9.61.02-19.23,0-28.84.15h0Z"/>
        <path class="cls-1" d="m133.51,15.93c51.49-.83,103.05-.26,154.54-.17,12.25.02,24.51,0,36.77.16,0,0-.01.01-.02.02-51.53.66-103.11.25-154.64.16-12.21-.02-24.44.02-36.65-.17h0Z"/>
        <path class="cls-1" d="m49.4,204.82c101.8,1.46,203.73.34,305.54.19,17.97-.03,35.94.03,53.91-.18-.02,0-.04-.02-.06-.03-101.58-1.09-203.23-.33-304.81-.18-18.19.03-36.39-.07-54.58.19h0Z"/>
        <path class="cls-1" d="m50.56,55.39c100.76-1.37,201.63-.33,302.4-.19,18.24.03,36.48-.03,54.72.17l-.06.03c-100.01,1.06-200.09.31-300.1.18-18.98-.03-37.97.06-56.95-.19h0Z"/>
        <path class="cls-1" d="m6.29,130.76c119.11.04,238.22,0,357.34,0,29.43,0,58.86,0,88.29,0-120.41-.04-240.81,0-361.22,0-28.14,0-56.27,0-84.41,0h0Z"/>
        <path class="cls-1" d="m386.23,128.22c21.19,0,42.37,0,63.56,0-125.17.03-250.35,0-375.52,0-21.95,0-43.89,0-65.84,0h0"/>
        <path class="cls-1" d="m46.98,55.73c100.64-1.49,201.41-.33,302.06-.2,20.74.03,41.48-.05,62.22.19-.02,0-.04.02-.06.03-102.59,1.14-205.26.32-307.86.18-18.78-.03-37.57.08-56.35-.19h0Z"/>
        <path class="cls-1" d="m48.73,201.81c99.31,1.29,198.71.32,298.03.2,20.92-.03,41.84.04,62.76-.18h0l-.06-.03c-99.71-1.09-199.49-.3-299.2-.18-20.5.03-41.02-.1-61.52.19h0Z"/>
        <path class="cls-1" d="m130.84,14.69c53.91-.88,107.91-.27,161.83-.17,11.6.02,23.21,0,34.81.16,0,0-.01.01-.02.02-54.37.73-108.79.27-163.17.15-11.15-.02-22.31.01-33.46-.17h0Z"/>
        <path class="cls-1" d="m131.17,242.06c54.31.88,108.7.27,163.01.16,10.99-.02,21.98,0,32.96-.15,0,0-.01-.01-.02-.02-54.88-.72-109.81-.26-164.69-.15-10.42.02-20.85,0-31.27.16h0Z"/>
        <path class="cls-1" d="m225.77,1.8c2.29-.01,4.59-.01,6.88,0,0,0,0,0,0,0-2.29.01-4.59.01-6.88,0h0Z"/>
        <path class="cls-1" d="m224.42,254.91c3.2.02,6.4.02,9.6,0,0,0,0,0,0,0-3.2-.02-6.4-.02-9.6,0h0Z"/>
        <path class="cls-1" d="m229,84.89c.14,0,.29,0,.43,0h0c-.14,0-.29,0-.43,0h0Z"/>
        <path class="cls-1" d="m226.86,172.64c1.57,0,3.14,0,4.71,0h0c-1.57,0-3.14,0-4.71,0h0Z"/>
        <path class="cls-1" d="m229,170.87c.14,0,.29,0,.43,0h0c-.14,0-.29,0-.43,0h0Z"/>
        <path class="cls-1" d="m226.86,88.17c1.57,0,3.14,0,4.71,0h0c-1.57,0-3.14,0-4.71,0h0Z"/>
        <path class="cls-1" d="m229.04,71.35v185.5c-66.38-.07-141.14-24.99-173.4-80.13C21.06,117.61,59.91,55.22,120.51,25.49,153.57,9.27,191.47,1.83,229.04,1.79v69.56h0Z"/>
        <path class="cls-1" d="m227.24,186.41V3.7c-65.42.41-139.54,25.45-170.7,80.21-32.19,56.58,3.78,116.15,61.04,145.69,33.1,17.07,71.59,25.1,109.66,25.33v-68.52h0Z"/>
        <path class="cls-1" d="m229.13,1.79v255.06c-48.14-.11-76.23-46.29-86.15-82.57-12.86-47.02-6.62-105.06,28.15-143.96,14.26-15.95,34.39-28.47,58-28.53Z"/>
        <path class="cls-1" d="m228.24,254.93V3.71c-47.68.66-75.28,46.69-84.82,82.74-12.09,45.67-5.86,101.36,27.33,139.32,14.01,16.02,33.97,28.82,57.49,29.16Z"/>
        <path class="cls-1" d="m229.25,1.79v255.06c28.05-4.95,28.8-72.16,30.18-90.35,3.27-43.09,2.71-88.94-8.84-131.08-2.83-10.34-7.1-31.12-21.33-33.63h0Z"/>
        <path class="cls-1" d="m229.55,254.93V3.71c27.83,5.99,28.28,71.44,29.65,90.02,3.07,41.67,2.36,85.59-8.41,126.38-2.82,10.66-6.89,31.72-21.24,34.82h0Z"/>
        <path class="cls-1" d="m229.36,24.98v231.87c29.55,0,58.69-7.96,83.05-22.88,24.18-14.81,43.12-36.18,53.4-60.72,10.5-25.06,11.69-52.99,3.39-78.7-8.1-25.09-25.11-47.61-47.89-63.97-23.5-16.88-52.62-26.89-82.72-28.54-3.07-.17-6.16-.25-9.24-.25v23.19h0Z"/>
        <path class="cls-1" d="m230.76,232.09V3.7c58.68.49,113.34,33.37,133.9,82.72,20.64,49.52,2.49,106.1-43.16,139.39-25.52,18.61-57.82,28.85-90.75,29.12v-22.84h0Z"/>
        <path class="cls-1" d="m229.42,94.54v162.31c72.22.05,161.98-22.31,199.67-82.72,35.94-57.6-7.14-115.49-65.12-143.81C323.08,10.35,275.78,1.76,229.42,1.79v92.75h0Z"/>
        <path class="cls-1" d="m231.48,163.58V3.7c71.1.36,159.95,22.68,196.43,82.64,34.05,55.96-7.55,111.8-63.39,139.6-40.31,20.06-87.16,28.75-133.04,29v-91.36h0Z"/>
        <path class="cls-1" d="m229.42,1.79v255.06c72.34.16,162.3-22.15,200.13-82.62,36.12-57.75-7.2-115.76-65.37-144.06C323.2,10.24,275.83,1.69,229.42,1.79h0Z"/>
        <path class="cls-1" d="m231.48,254.94V3.7c71.22.25,160.27,22.52,196.89,82.54,34.22,56.09-7.61,112.07-63.64,139.85-40.39,20.03-87.32,28.66-133.25,28.85h0Z"/>
        <path class="cls-1" d="m229.36,1.79v255.06c29.61.18,58.86-7.65,83.37-22.49,24.4-14.77,43.54-36.19,53.94-60.84s11.83-53.33,3.44-79.19c-8.19-25.22-25.4-47.82-48.4-64.16-23.65-16.81-52.91-26.7-83.11-28.18-3.08-.15-6.16-.22-9.24-.2h0Z"/>
        <path class="cls-1" d="m230.76,254.94V3.7c58.9.16,113.97,32.97,134.74,82.46,20.9,49.8,2.52,106.77-43.61,140.06-25.68,18.54-58.13,28.64-91.13,28.72h0Z"/>
        <path class="cls-1" d="m229.25,48.16v208.69c28.11-4.11,29.06-72.28,30.43-90.04,3.34-43.34,2.8-89.58-8.97-131.94-2.82-10.16-7.19-31.04-21.46-33.08v46.37h0Z"/>
        <path class="cls-1" d="m229.55,209.26V3.69c27.91,5.17,28.55,71.58,29.9,89.74,3.12,41.92,2.44,86.19-8.53,127.21-2.81,10.51-6.97,31.62-21.37,34.29v-45.68h0Z"/>
        <path class="cls-1" d="m229.13,117.72v139.12c-48.36.42-76.77-45.9-86.79-82.23-13.03-47.26-6.77-105.83,28.5-144.79,14.38-15.89,34.65-28.24,58.29-28.04v115.94h0Z"/>
        <path class="cls-1" d="m228.24,140.74V3.69c-47.91.14-75.81,46.32-85.46,82.43-12.25,45.9-5.99,102.1,27.67,140.13,14.13,15.96,34.23,28.6,57.79,28.68v-114.2h0Z"/>
        <path class="cls-1" d="m229.04,1.79v255.06c-66.58.15-141.67-24.68-174.16-79.93C19.97,117.56,59.22,54.88,120.21,25.2,153.4,9.06,191.39,1.71,229.04,1.79Z"/>
        <path class="cls-1" d="m227.24,254.94V3.7c-65.62.2-140.08,25.15-171.45,80.02-32.5,56.83,3.85,116.67,61.48,146.17,33.23,17.01,71.82,24.94,109.97,25.05Z"/>
      </g>
      <g>
        <path class="cls-2" d="m421.09,101.75c-1.9,3.6-2.97,9.01-3.2,16.09,9.71.3,19.39.63,29.04,1v14.5c-9.68.35-19.38.68-29.11.98,0,3.37.2,6.6.59,9.66.39,3.07,1.2,5.83,2.4,8.24,1.07,2.25,2.33,3.55,3.79,3.92,1.46.38,2.96.45,4.49.25.09-.01.2-.03.31-.04.11-.02.22-.03.31-.04,5.75-.82,11.48-1.67,17.21-2.55v14.5c-5.89,1.33-11.79,2.6-17.7,3.82-2.83.58-5.55.66-8.18.2-2.62-.46-5.1-2.27-7.42-5.52-2.79-3.98-4.74-9.22-5.86-15.62-1.12-6.39-1.72-13.07-1.81-19.93-.05-1.48-.06-2.92-.04-4.31.02-1.39.06-2.78.11-4.17.51-15.76,2.66-27.17,6.45-33.85,3.79-6.71,9.47-9.11,17.03-7.54,5.82,1.15,11.62,2.36,17.42,3.63v14.5c-5.73-.84-11.47-1.65-17.21-2.42-3.85-.43-6.73,1.1-8.63,4.71Z"/>
        <g>
          <path class="cls-2" d="m16.46,108.07c-1.88,3.1-2.94,7.13-3.17,12.23,9.59-.49,19.21-.97,28.86-1.41v14.4c-9.67-.36-19.32-.74-28.93-1.14,0,2.42.19,4.75.59,7.03.39,2.28,1.18,4.42,2.38,6.47,1.06,1.91,2.31,3.21,3.75,3.88,1.45.67,2.93,1.14,4.45,1.38.09.01.2.03.31.05.11.02.22.04.31.05,5.7.89,11.42,1.74,17.15,2.55v14.4c-5.89-1.34-11.76-2.74-17.63-4.2-2.81-.7-5.51-1.76-8.1-3.13-2.59-1.37-5.04-3.61-7.33-6.58-2.75-3.63-4.67-7.53-5.77-11.82-1.1-4.29-1.69-8.49-1.78-12.77-.05-.92-.06-1.82-.03-2.69.02-.87.06-1.73.1-2.6.5-9.82,2.62-17.35,6.35-23.04,3.73-5.64,9.34-9.79,16.84-11.67,5.77-1.46,11.56-2.87,17.35-4.23v14.4c-5.73.85-11.44,1.73-17.15,2.66-3.82.69-6.67,2.68-8.55,5.76Z"/>
          <path class="cls-2" d="m64.58,80.45c6.82,20.75,13.65,43.54,20.49,68.05-.16-23.99-.33-47.94-.49-71.84,3.58-.64,7.17-1.25,10.76-1.85,0,34.54,0,69.08,0,103.62-4.08-.68-8.16-1.38-12.23-2.11-7.19-26.35-14.37-50.83-21.53-73.05.16,22.95.32,45.96.49,69.01-3.59-.73-7.18-1.49-10.77-2.27,0-28.93,0-57.86,0-86.79,4.42-.96,8.84-1.88,13.27-2.77Z"/>
          <path class="cls-2" d="m100.38,92.46v-18.32c14.46-2.31,28.97-4.27,43.51-5.88v20.38c-5.46.39-10.92.82-16.38,1.28v93.26c-3.65-.47-7.3-.97-10.95-1.48,0-30.27,0-60.54,0-90.81-5.4.5-10.8,1.02-16.18,1.58Z"/>
          <path class="cls-2" d="m175.25,65.15c.52.08,1.02.09,1.52.06.49-.04,1-.02,1.52.06,1.93.09,3.82.7,5.68,1.85,1.86,1.15,3.49,3.42,4.91,6.83,1.27,2.95,2.22,6.45,2.86,10.49.64,4.05,1.02,8.22,1.17,12.52,0,.81.01,1.63.04,2.44.02.82.04,1.63.04,2.44.05,8.73-.77,16.28-2.44,22.6-1.67,6.33-4.27,10.51-7.8,12.54,4.21,17.26,8.42,34.76,12.64,52.42-4-.22-8-.46-12-.73-3.72-16.5-7.43-32.82-11.15-48.92-4.18-.07-8.37-.15-12.55-.23,0,15.75,0,31.49,0,47.24-3.55-.33-7.09-.69-10.64-1.06v-118.16c8.73-.92,17.47-1.71,26.22-2.38Zm-2.54,22.04c-4.35.22-8.7.46-13.04.73,0,10.11,0,20.21,0,30.32,4.35-.06,8.69-.11,13.04-.16.09.12.19.17.28.17.09,0,.19,0,.28,0,2.26-.02,4.31-.87,6.17-2.56,1.86-1.68,2.76-6.1,2.72-13.24,0-7.36-.98-11.76-2.93-13.17-1.95-1.41-4.13-2.04-6.53-1.92,0-.06,0-.11,0-.17Z"/>
          <path class="cls-2" d="m205.82,63.33c4.17,15.92,8.34,32.01,12.51,48.2,4.24-16.25,8.48-32.58,12.73-48.93,4.12-.06,8.25-.1,12.37-.11-6.53,23.89-13.06,47.84-19.59,71.61v56.41c-3.56-.08-7.12-.19-10.67-.31,0-18.71,0-37.43,0-56.14-6.43-23.7-12.86-47.15-19.29-70.14,3.98-.22,7.96-.42,11.94-.59Z"/>
          <path class="cls-2" d="m284.26,188.07c-2.8-1.12-5.38-4.76-7.74-10.96-2.03-5.26-3.3-11.21-3.82-17.83-.52-6.62-.78-13.42-.78-20.41V62.87c3.56.1,7.12.23,10.67.37v69.55c-.05,11.77.47,20.77,1.55,26.97,1.08,6.21,4.43,9.23,10.03,9.02,4.19-.21,8.38-.44,12.57-.68v20.57c-4.49.3-8.99.57-13.49.81-3.2.17-6.21-.3-9.01-1.42Z"/>
          <path class="cls-2" d="m324.54,94.58c-1.93,4.81-3.01,11.78-3.24,20.83,9.83.09,19.64.22,29.44.38v20.21c-9.82.18-19.66.34-29.51.47,0,4.3.2,8.43.6,12.38.4,3.95,1.21,7.54,2.43,10.75,1.08,2.99,2.36,4.81,3.84,5.45,1.48.65,3,.91,4.55.82.09,0,.2-.01.32-.02.12,0,.22-.01.32-.02,5.82-.42,11.64-.88,17.46-1.38v20.21c-5.98.69-11.96,1.33-17.95,1.9-2.87.27-5.63-.09-8.28-1.1-2.66-1.01-5.16-3.71-7.51-8.11-2.82-5.39-4.8-12.14-5.93-20.19-1.13-8.05-1.74-16.34-1.83-24.85-.05-1.84-.06-3.62-.04-5.35.02-1.72.06-3.45.11-5.17.52-19.54,2.69-33.84,6.53-42.73,3.83-8.9,9.58-12.94,17.24-12.19,5.89.51,11.78,1.08,17.67,1.71v20.21c-5.81-.44-11.63-.84-17.46-1.21-3.9-.14-6.81,2.18-8.74,7Z"/>
          <path class="cls-2" d="m352.63,68.8c3.98.47,7.97.97,11.95,1.49,5.06,28.65,10.11,56.34,15.15,82.9,5.16-27.3,10.32-53.49,15.47-78.35,3.75.62,7.5,1.27,11.25,1.94-6.98,31.98-13.97,66.53-20.98,103.18-3.64.56-7.29,1.11-10.93,1.63-7.29-35.6-14.6-73.37-21.91-112.78Z"/>
          <path class="cls-2" d="m466.95,162.42c-2.74-.05-5.26-1.68-7.56-5.05-1.98-2.86-3.23-6.38-3.73-10.44-.51-4.06-.76-8.3-.76-12.66v-47.47c3.48.82,6.96,1.66,10.43,2.52v40.93c-.05,6.93.46,12.21,1.52,15.7,1.06,3.51,4.32,4.75,9.78,3.77,4.08-.75,8.16-1.51,12.23-2.3v10.32c-4.37,1.21-8.74,2.38-13.13,3.52-3.12.81-6.05,1.22-8.79,1.16Z"/>
        </g>
      </g>
    </g>
  </g>
</svg>