<?xml version="1.0" encoding="UTF-8"?>
<svg id="Layer_2" data-name="Layer 2" xmlns="http://www.w3.org/2000/svg" xmlns:xlink="http://www.w3.org/1999/xlink" viewBox="0 0 394.53 208.48">
  <defs>
    <style>
      .cls-1 {
        stroke: url(#linear-gradient);
      }

      .cls-1, .cls-2, .cls-3, .cls-4, .cls-5, .cls-6, .cls-7, .cls-8, .cls-9, .cls-10, .cls-11, .cls-12, .cls-13, .cls-14, .cls-15, .cls-16, .cls-17, .cls-18, .cls-19, .cls-20, .cls-21, .cls-22, .cls-23, .cls-24, .cls-25, .cls-26, .cls-27, .cls-28, .cls-29, .cls-30, .cls-31, .cls-32, .cls-33, .cls-34, .cls-35, .cls-36, .cls-37, .cls-38, .cls-39, .cls-40, .cls-41, .cls-42, .cls-43, .cls-44, .cls-45, .cls-46 {
        fill: none;
      }

      .cls-1, .cls-2, .cls-3, .cls-4, .cls-5, .cls-6, .cls-7, .cls-8, .cls-9, .cls-10, .cls-11, .cls-12, .cls-13, .cls-14, .cls-15, .cls-16, .cls-17, .cls-18, .cls-19, .cls-20, .cls-21, .cls-22, .cls-23, .cls-24, .cls-25, .cls-26, .cls-27, .cls-28, .cls-29, .cls-30, .cls-31, .cls-32, .cls-33, .cls-34, .cls-35, .cls-36, .cls-37, .cls-38, .cls-39, .cls-40, .cls-41, .cls-42, .cls-43, .cls-44, .cls-45, .cls-46, .cls-47, .cls-48, .cls-49, .cls-50, .cls-51, .cls-52, .cls-53, .cls-54, .cls-55, .cls-56 {
        stroke-miterlimit: 10;
        stroke-width: 3px;
      }

      .cls-2 {
        stroke: url(#linear-gradient-3);
      }

      .cls-3 {
        stroke: url(#linear-gradient-4);
      }

      .cls-4 {
        stroke: url(#linear-gradient-2);
      }

      .cls-5 {
        stroke: url(#linear-gradient-7);
      }

      .cls-6 {
        stroke: url(#linear-gradient-6);
      }

      .cls-7 {
        stroke: url(#linear-gradient-5);
      }

      .cls-8 {
        stroke: url(#linear-gradient-9);
      }

      .cls-9 {
        stroke: url(#linear-gradient-8);
      }

      .cls-10 {
        stroke: url(#linear-gradient-39);
      }

      .cls-11 {
        stroke: url(#linear-gradient-36);
      }

      .cls-12 {
        stroke: url(#linear-gradient-37);
      }

      .cls-13 {
        stroke: url(#linear-gradient-27);
      }

      .cls-14 {
        stroke: url(#linear-gradient-25);
      }

      .cls-15 {
        stroke: url(#linear-gradient-28);
      }

      .cls-16 {
        stroke: url(#linear-gradient-29);
      }

      .cls-17 {
        stroke: url(#linear-gradient-26);
      }

      .cls-18 {
        stroke: url(#linear-gradient-24);
      }

      .cls-19 {
        stroke: url(#linear-gradient-35);
      }

      .cls-20 {
        stroke: url(#linear-gradient-34);
      }

      .cls-21 {
        stroke: url(#linear-gradient-38);
      }

      .cls-22 {
        stroke: url(#linear-gradient-33);
      }

      .cls-23 {
        stroke: url(#linear-gradient-30);
      }

      .cls-24 {
        stroke: url(#linear-gradient-32);
      }

      .cls-25 {
        stroke: url(#linear-gradient-31);
      }

      .cls-26 {
        stroke: url(#linear-gradient-23);
      }

      .cls-27 {
        stroke: url(#linear-gradient-20);
      }

      .cls-28 {
        stroke: url(#linear-gradient-14);
      }

      .cls-29 {
        stroke: url(#linear-gradient-16);
      }

      .cls-30 {
        stroke: url(#linear-gradient-18);
      }

      .cls-31 {
        stroke: url(#linear-gradient-15);
      }

      .cls-32 {
        stroke: url(#linear-gradient-17);
      }

      .cls-33 {
        stroke: url(#linear-gradient-19);
      }

      .cls-34 {
        stroke: url(#linear-gradient-10);
      }

      .cls-35 {
        stroke: url(#linear-gradient-12);
      }

      .cls-36 {
        stroke: url(#linear-gradient-13);
      }

      .cls-37 {
        stroke: url(#linear-gradient-11);
      }

      .cls-38 {
        stroke: url(#linear-gradient-22);
      }

      .cls-39 {
        stroke: url(#linear-gradient-21);
      }

      .cls-40 {
        stroke: url(#linear-gradient-40);
      }

      .cls-41 {
        stroke: url(#linear-gradient-41);
      }

      .cls-42 {
        stroke: url(#linear-gradient-42);
      }

      .cls-43 {
        stroke: url(#linear-gradient-43);
      }

      .cls-44 {
        stroke: url(#linear-gradient-45);
      }

      .cls-45 {
        stroke: url(#linear-gradient-46);
      }

      .cls-46 {
        stroke: url(#linear-gradient-44);
      }

      .cls-57 {
        opacity: .47;
      }

      .cls-47 {
        stroke: url(#linear-gradient-52);
      }

      .cls-48 {
        stroke: url(#linear-gradient-54);
      }

      .cls-49 {
        stroke: url(#linear-gradient-51);
      }

      .cls-50 {
        stroke: url(#linear-gradient-53);
      }

      .cls-51 {
        stroke: url(#linear-gradient-50);
      }

      .cls-52 {
        stroke: url(#linear-gradient-56);
      }

      .cls-53 {
        stroke: url(#linear-gradient-55);
      }

      .cls-54 {
        stroke: url(#linear-gradient-48);
      }

      .cls-55 {
        stroke: url(#linear-gradient-47);
      }

      .cls-56 {
        stroke: url(#linear-gradient-49);
      }
    </style>
    <linearGradient id="linear-gradient" x1="184.26" y1="1.79" x2="184.62" y2="1.79" gradientUnits="userSpaceOnUse">
      <stop offset="0" stop-color="#ff939e"/>
      <stop offset=".03" stop-color="#f38d98"/>
      <stop offset=".2" stop-color="#af6d74"/>
      <stop offset=".35" stop-color="#7a5458"/>
      <stop offset=".49" stop-color="#534244"/>
      <stop offset=".59" stop-color="#3b3737"/>
      <stop offset=".66" stop-color="#333"/>
    </linearGradient>
    <linearGradient id="linear-gradient-2" x1="184.26" y1="206.69" x2="184.62" y2="206.69" xlink:href="#linear-gradient"/>
    <linearGradient id="linear-gradient-3" x1="182.47" y1="205.16" x2="186.34" y2="205.16" xlink:href="#linear-gradient"/>
    <linearGradient id="linear-gradient-4" x1="182.54" y1="3.32" x2="186.34" y2="3.32" xlink:href="#linear-gradient"/>
    <linearGradient id="linear-gradient-5" y1="1.79" x2="184.62" y2="1.79" xlink:href="#linear-gradient"/>
    <linearGradient id="linear-gradient-6" x1="184.26" y1="206.69" x2="184.62" y2="206.69" xlink:href="#linear-gradient"/>
    <linearGradient id="linear-gradient-7" x1="182.54" y1="205.16" x2="186.34" y2="205.16" xlink:href="#linear-gradient"/>
    <linearGradient id="linear-gradient-8" x1="182.47" y1="3.32" x2="186.34" y2="3.32" xlink:href="#linear-gradient"/>
    <linearGradient id="linear-gradient-9" x1="182.89" y1="206.69" x2="185.96" y2="206.69" xlink:href="#linear-gradient"/>
    <linearGradient id="linear-gradient-10" x1="182.47" y1="3.32" x2="186.48" y2="3.32" xlink:href="#linear-gradient"/>
    <linearGradient id="linear-gradient-11" x1="107.86" y1="197.03" x2="264.06" y2="197.03" xlink:href="#linear-gradient"/>
    <linearGradient id="linear-gradient-12" x1="107.53" y1="13.12" x2="264.45" y2="13.12" xlink:href="#linear-gradient"/>
    <linearGradient id="linear-gradient-13" x1="39.96" y1="164.96" x2="336.01" y2="164.96" xlink:href="#linear-gradient"/>
    <linearGradient id="linear-gradient-14" x1="40.89" y1="44.79" x2="335.16" y2="44.79" xlink:href="#linear-gradient"/>
    <linearGradient id="linear-gradient-15" x1="5.35" y1="105.4" x2="363.35" y2="105.4" xlink:href="#linear-gradient"/>
    <linearGradient id="linear-gradient-16" x1="7.06" y1="103.37" x2="361.64" y2="103.37" xlink:href="#linear-gradient"/>
    <linearGradient id="linear-gradient-17" x1="38.02" y1="45.07" x2="338.19" y2="45.07" xlink:href="#linear-gradient"/>
    <linearGradient id="linear-gradient-18" x1="39.42" y1="162.51" x2="336.84" y2="162.51" xlink:href="#linear-gradient"/>
    <linearGradient id="linear-gradient-19" x1="105.38" y1="12.13" x2="266.6" y2="12.13" xlink:href="#linear-gradient"/>
    <linearGradient id="linear-gradient-20" x1="105.65" y1="194.84" x2="266.38" y2="194.84" xlink:href="#linear-gradient"/>
    <linearGradient id="linear-gradient-21" x1="181.67" y1="1.8" x2="188.7" y2="1.8" xlink:href="#linear-gradient"/>
    <linearGradient id="linear-gradient-22" x1="180.58" y1="205.14" x2="189.79" y2="205.14" xlink:href="#linear-gradient"/>
    <linearGradient id="linear-gradient-23" x1="184.27" y1="68.55" x2="184.62" y2="68.55" xlink:href="#linear-gradient"/>
    <linearGradient id="linear-gradient-24" x1="182.54" y1="139.05" x2="186.33" y2="139.05" xlink:href="#linear-gradient"/>
    <linearGradient id="linear-gradient-25" x1="184.27" y1="137.62" x2="184.62" y2="137.62" xlink:href="#linear-gradient"/>
    <linearGradient id="linear-gradient-26" x1="182.54" y1="71.19" x2="186.33" y2="71.19" xlink:href="#linear-gradient"/>
    <linearGradient id="linear-gradient-27" x1="33.06" y1="104.24" x2="185.8" y2="104.24" xlink:href="#linear-gradient"/>
    <linearGradient id="linear-gradient-28" x1="34.49" y1="104.24" x2="184.35" y2="104.24" xlink:href="#linear-gradient"/>
    <linearGradient id="linear-gradient-29" x1="108.7" y1="104.24" x2="185.87" y2="104.24" xlink:href="#linear-gradient"/>
    <linearGradient id="linear-gradient-30" x1="109.43" y1="104.24" x2="185.16" y2="104.24" xlink:href="#linear-gradient"/>
    <linearGradient id="linear-gradient-31" x1="182.96" y1="104.24" x2="211.6" y2="104.24" xlink:href="#linear-gradient"/>
    <linearGradient id="linear-gradient-32" x1="183.21" y1="104.24" x2="211.3" y2="104.24" xlink:href="#linear-gradient"/>
    <linearGradient id="linear-gradient-33" x1="183.05" y1="104.24" x2="302.79" y2="104.24" xlink:href="#linear-gradient"/>
    <linearGradient id="linear-gradient-34" x1="184.18" y1="104.24" x2="301.55" y2="104.24" xlink:href="#linear-gradient"/>
    <linearGradient id="linear-gradient-35" x1="183.11" y1="104.24" x2="357.07" y2="104.24" xlink:href="#linear-gradient"/>
    <linearGradient id="linear-gradient-36" x1="184.75" y1="104.24" x2="355.45" y2="104.24" xlink:href="#linear-gradient"/>
    <linearGradient id="linear-gradient-37" x1="183.11" y1="104.24" x2="357.49" y2="104.24" xlink:href="#linear-gradient"/>
    <linearGradient id="linear-gradient-38" x1="184.75" y1="104.24" x2="355.86" y2="104.24" xlink:href="#linear-gradient"/>
    <linearGradient id="linear-gradient-39" x1="183.05" y1="104.24" x2="303.56" y2="104.24" xlink:href="#linear-gradient"/>
    <linearGradient id="linear-gradient-40" x1="184.18" y1="104.24" x2="302.31" y2="104.24" xlink:href="#linear-gradient"/>
    <linearGradient id="linear-gradient-41" x1="182.96" y1="104.24" x2="211.84" y2="104.24" xlink:href="#linear-gradient"/>
    <linearGradient id="linear-gradient-42" x1="183.21" y1="104.24" x2="211.53" y2="104.24" xlink:href="#linear-gradient"/>
    <linearGradient id="linear-gradient-43" x1="108.11" y1="104.24" x2="185.87" y2="104.24" xlink:href="#linear-gradient"/>
    <linearGradient id="linear-gradient-44" x1="108.85" y1="104.24" x2="185.15" y2="104.24" xlink:href="#linear-gradient"/>
    <linearGradient id="linear-gradient-45" x1="32.35" y1="104.24" x2="185.8" y2="104.24" xlink:href="#linear-gradient"/>
    <linearGradient id="linear-gradient-46" x1="33.79" y1="104.24" x2="184.35" y2="104.24" xlink:href="#linear-gradient"/>
    <linearGradient id="linear-gradient-47" x1="-4070.29" y1="-1056.52" x2="-4034.34" y2="-1056.52" gradientTransform="translate(4395.18 1158.67)" xlink:href="#linear-gradient"/>
    <linearGradient id="linear-gradient-48" x1="-4395.18" y1="-1056.61" x2="-4359.52" y2="-1056.61" gradientTransform="translate(4395.18 1158.67)" xlink:href="#linear-gradient"/>
    <linearGradient id="linear-gradient-49" x1="-4355.17" y1="-1056.6" x2="-4316.79" y2="-1056.6" gradientTransform="translate(4395.18 1158.67)" xlink:href="#linear-gradient"/>
    <linearGradient id="linear-gradient-50" x1="-4315.74" y1="-1057.31" x2="-4277.79" y2="-1057.31" gradientTransform="translate(4395.18 1158.67)" xlink:href="#linear-gradient"/>
    <linearGradient id="linear-gradient-51" x1="-4276.66" y1="-1056.03" x2="-4236.01" y2="-1056.03" gradientTransform="translate(4395.18 1158.67)" xlink:href="#linear-gradient"/>
    <linearGradient id="linear-gradient-52" x1="-4241.07" y1="-1056.69" x2="-4197.35" y2="-1056.69" gradientTransform="translate(4395.18 1158.67)" xlink:href="#linear-gradient"/>
    <linearGradient id="linear-gradient-53" x1="-4177.93" y1="-1056.96" x2="-4146.95" y2="-1056.96" gradientTransform="translate(4395.18 1158.67)" xlink:href="#linear-gradient"/>
    <linearGradient id="linear-gradient-54" x1="-4148" y1="-1056.53" x2="-4111.62" y2="-1056.53" gradientTransform="translate(4395.18 1158.67)" xlink:href="#linear-gradient"/>
    <linearGradient id="linear-gradient-55" x1="-4113.44" y1="-1057.77" x2="-4066.56" y2="-1057.77" gradientTransform="translate(4395.18 1158.67)" xlink:href="#linear-gradient"/>
    <linearGradient id="linear-gradient-56" x1="-4030.94" y1="-1058.41" x2="-4000.66" y2="-1058.41" gradientTransform="translate(4395.18 1158.67)" xlink:href="#linear-gradient"/>
  </defs>
  <g id="Layer_1-2" data-name="Layer 1">
    <g>
      <g class="cls-57">
        <path class="cls-1" d="m184.27,1.79h0c.11,0,.23,0,.34,0h0c-.11,0-.23,0-.34,0h0Z"/>
        <path class="cls-4" d="m184.27,206.69c.11,0,.23,0,.34,0h0c-.11,0-.23,0-.34,0h0Z"/>
        <path class="cls-2" d="m182.56,205.16h0c1.26,0,2.52,0,3.78,0h0c-1.26,0-2.52,0-3.77,0h0Z"/>
        <path class="cls-3" d="m182.55,3.32c1.26,0,2.52,0,3.78,0h0c-1.26,0-2.52,0-3.78,0h0Z"/>
        <path class="cls-7" d="m184.27,1.79c.11,0,.23,0,.34,0h0c-.11,0-.23,0-.34,0h0Z"/>
        <path class="cls-6" d="m184.27,206.69h0c.11,0,.23,0,.34,0h0c-.11,0-.23,0-.34,0h0Z"/>
        <path class="cls-5" d="m182.55,205.16c1.26,0,2.52,0,3.78,0h0c-1.26,0-2.52,0-3.78,0h0Z"/>
        <path class="cls-9" d="m182.56,3.32h0c1.26,0,2.52,0,3.78,0h0c-1.26,0-2.52,0-3.77,0h0Z"/>
        <path class="cls-8" d="m184.27,206.69h0s0,0,0,0h0s0,0,0,0h0s0,0,0,0h.01s0,0,.01,0h.01s0,0,.01,0h.01s.01,0,.02,0h.05s.01,0,.02,0h.03s.01,0,.02,0h.02s.01,0,.02,0h.03s0,0,.01,0h.01s0,0,0,0h0s0,0,0,0h0s0,0,0,0h0s0,0,0,0h0s0,0,0,0h0s0,0,0,0h0s0,0-.01,0h-.01s0,0-.01,0h-.01s-.01,0-.02,0h-.03s-.01,0-.02,0h-.07s-.01,0-.02,0h-.02s0,0-.01,0h-.01s0,0-.01,0h-.01s0,0-.01,0h0s0,0,0,0h0s0,0,0,0h0s0,0,0,0h0Z"/>
        <path class="cls-34" d="m182.55,3.32h0s.02,0,.03,0h.05s.04,0,.06,0h.08s.07,0,.1,0h.11s.09,0,.13,0h.14c.05,0,.1,0,.15,0h.16c.06,0,.11,0,.17,0h.18c.06,0,.12,0,.18,0h.19c.06,0,.13,0,.19,0h.19c.06,0,.12,0,.19,0h.18c.06,0,.12,0,.18,0h.17c.05,0,.11,0,.16,0h.15s.09,0,.14,0h.12s.07,0,.11,0h.09s.05,0,.07,0h.06s.02,0,.04,0h.02s0,0,0,0h-.02s-.02,0-.04,0h-.06s-.05,0-.07,0h-.09s-.07,0-.11,0h-.12s-.09,0-.14,0h-.15c-.05,0-.11,0-.16,0h-.17c-.06,0-.12,0-.18,0h-.18c-.06,0-.12,0-.19,0h-.19c-.06,0-.13,0-.19,0h-.19c-.06,0-.12,0-.18,0h-.18c-.06,0-.11,0-.17,0h-.16c-.05,0-.1,0-.15,0h-.14s-.09,0-.13,0h-.11s-.07,0-.1,0h-.08s-.04,0-.06,0h-.05s-.02,0-.03,0h0Z"/>
        <path class="cls-37" d="m107.89,197.01c42.4.69,84.87.22,127.28.13,8.58-.02,17.16,0,25.74-.12,0,0,0-.01-.01-.02-43.26-.57-86.57-.22-129.83-.12-7.72.02-15.45,0-23.17.12h0Z"/>
        <path class="cls-35" d="m107.55,13.15c41.36-.67,82.79-.21,124.16-.13,9.84.02,19.69,0,29.54.13,0,0,0,.01-.01.02-41.4.53-82.83.2-124.24.13-9.81-.02-19.63.02-29.44-.13h0Z"/>
        <path class="cls-36" d="m39.98,164.89c81.78,1.18,163.67.27,245.46.15,14.44-.02,28.88.02,43.31-.14-.02,0-.03-.01-.05-.02-81.61-.87-163.26-.26-244.87-.14-14.61.02-29.24-.05-43.85.15h0Z"/>
        <path class="cls-28" d="m40.91,44.85c80.95-1.1,161.98-.26,242.94-.15,14.65.02,29.31-.02,43.96.14l-.05.02c-80.35.85-160.74.25-241.09.14-15.25-.02-30.51.05-45.75-.15h0Z"/>
        <path class="cls-31" d="m5.35,105.4c95.69.03,191.38,0,287.07,0,23.64,0,47.29,0,70.93,0-96.73-.04-193.46,0-290.19,0-22.6,0-45.21,0-67.81,0h0Z"/>
        <path class="cls-29" d="m310.57,103.36c17.02,0,34.04,0,51.06,0-100.56.03-201.12,0-301.68,0-17.63,0-35.26,0-52.89,0h0"/>
        <path class="cls-32" d="m38.04,45.12c80.85-1.2,161.81-.26,242.67-.16,16.66.02,33.32-.04,49.98.15-.02,0-.03.01-.05.02-82.42.91-164.9.26-247.33.14-15.09-.02-30.18.06-45.27-.15h0Z"/>
        <path class="cls-30" d="m39.44,162.48c79.78,1.04,159.64.25,239.42.16,16.8-.02,33.61.03,50.42-.15h0l-.05-.02c-80.1-.88-160.26-.24-240.36-.14-16.47.02-32.96-.08-49.43.15h0Z"/>
        <path class="cls-33" d="m105.41,12.15c43.31-.71,86.69-.22,130.01-.14,9.32.02,18.64,0,27.97.13,0,0-.01.01-.02.02-43.68.58-87.4.21-131.08.12-8.96-.02-17.92.01-26.88-.13h0Z"/>
        <path class="cls-27" d="m105.67,194.81c43.63.71,87.33.22,130.96.13,8.83-.02,17.66,0,26.48-.12,0,0-.01-.01-.02-.02-44.08-.58-88.21-.21-132.3-.12-8.37.02-16.75,0-25.12.13h0Z"/>
        <path class="cls-39" d="m181.67,1.8c1.84-.01,3.69-.01,5.53,0,0,0,0,0,0,0-1.84,0-3.69,0-5.53,0h0Z"/>
        <path class="cls-38" d="m180.58,205.14c2.57.01,5.14.01,7.71,0,0,0,0,0,0,0-2.57-.01-5.14-.01-7.71,0h0Z"/>
        <path class="cls-26" d="m184.27,68.55c.11,0,.23,0,.34,0h0c-.11,0-.23,0-.34,0h0Z"/>
        <path class="cls-18" d="m182.55,139.05c1.26,0,2.52,0,3.78,0h0c-1.26,0-2.52,0-3.78,0h0Z"/>
        <path class="cls-14" d="m184.27,137.62c.11,0,.23,0,.34,0h0c-.11,0-.23,0-.34,0h0Z"/>
        <path class="cls-17" d="m182.55,71.19c1.26,0,2.52,0,3.78,0h0c-1.26,0-2.52,0-3.78,0h0Z"/>
        <path class="cls-13" d="m184.3,57.67v149.02c-53.33-.05-113.38-20.08-139.3-64.38-27.78-47.48,3.43-97.61,52.12-121.49C123.67,7.8,154.11,1.82,184.3,1.79v55.88h0Z"/>
        <path class="cls-15" d="m182.85,150.11V3.33c-52.56.33-112.1,20.45-137.13,64.44-25.86,45.46,3.04,93.31,49.04,117.04,26.59,13.72,57.51,20.16,88.1,20.35v-55.04h0Z"/>
        <path class="cls-16" d="m184.37,1.79v204.9c-38.67-.09-61.24-37.19-69.21-66.33-10.33-37.77-5.32-84.4,22.62-115.65,11.45-12.81,27.63-22.87,46.59-22.92Z"/>
        <path class="cls-23" d="m183.66,205.15V3.33c-38.31.53-60.47,37.51-68.14,66.47-9.71,36.69-4.71,81.43,21.95,111.93,11.25,12.87,27.29,23.16,46.19,23.43Z"/>
        <path class="cls-25" d="m184.46,1.79v204.9c22.53-3.98,23.13-57.97,24.24-72.58,2.63-34.62,2.17-71.45-7.1-105.3-2.28-8.31-5.71-25-17.14-27.02h0Z"/>
        <path class="cls-24" d="m184.71,205.15V3.33c22.36,4.81,22.72,57.39,23.82,72.32,2.47,33.47,1.9,68.76-6.76,101.53-2.26,8.57-5.53,25.49-17.07,27.97h0Z"/>
        <path class="cls-22" d="m184.55,20.42v186.28c23.74,0,47.15-6.39,66.72-18.38,19.43-11.9,34.64-29.07,42.9-48.78,8.43-20.13,9.39-42.57,2.73-63.22-6.51-20.16-20.17-38.25-38.47-51.39C239.55,11.36,216.16,3.32,191.97,1.99c-2.47-.14-4.95-.2-7.42-.2v18.63h0Z"/>
        <path class="cls-20" d="m185.68,186.81V3.33c47.14.39,91.06,26.81,107.57,66.45,16.58,39.79,2,85.24-34.67,111.98-20.5,14.95-46.45,23.17-72.9,23.39v-18.35h0Z"/>
        <path class="cls-19" d="m184.61,76.3v130.39c58.02.04,130.13-17.93,160.4-66.45,28.87-46.28-5.74-92.78-52.32-115.53C259.85,8.67,221.85,1.76,184.61,1.79v74.51h0Z"/>
        <path class="cls-11" d="m186.25,131.76V3.33c57.12.29,128.5,18.22,157.8,66.39,27.35,44.95-6.06,89.82-50.93,112.15-32.38,16.12-70.02,23.09-106.88,23.29v-73.39h0Z"/>
        <path class="cls-12" d="m184.61,1.79v204.91c58.11.13,130.39-17.79,160.77-66.37,29.02-46.39-5.79-93-52.52-115.73C259.95,8.57,221.89,1.71,184.61,1.79h0Z"/>
        <path class="cls-21" d="m186.25,205.16V3.32c57.22.2,128.75,18.09,158.17,66.31,27.49,45.06-6.11,90.03-51.12,112.35-32.45,16.09-70.15,23.03-107.05,23.18h0Z"/>
        <path class="cls-10" d="m184.55,1.79v204.91c23.79.14,47.29-6.15,66.98-18.07,19.6-11.87,34.98-29.08,43.33-48.87,8.54-20.25,9.51-42.84,2.76-63.62-6.58-20.26-20.41-38.41-38.88-51.55C239.74,11.08,216.23,3.14,191.98,1.95c-2.47-.12-4.95-.18-7.42-.16h0Z"/>
        <path class="cls-40" d="m185.68,205.16V3.32c47.32.13,91.56,26.48,108.24,66.25,16.79,40.01,2.02,85.77-35.03,112.52-20.63,14.89-46.7,23.01-73.21,23.08h0Z"/>
        <path class="cls-41" d="m184.46,39.04v167.65c22.59-3.3,23.35-58.06,24.45-72.34,2.68-34.82,2.25-71.96-7.21-105.99-2.27-8.16-5.78-24.94-17.24-26.58v37.26h0Z"/>
        <path class="cls-42" d="m184.71,168.46V3.32c22.42,4.15,22.94,57.5,24.02,72.1,2.5,33.67,1.96,69.25-6.85,102.2-2.26,8.44-5.6,25.4-17.17,27.55v-36.7h0Z"/>
        <path class="cls-43" d="m184.37,94.93v111.77c-38.85.34-61.68-36.88-69.72-66.06-10.47-37.96-5.44-85.02,22.9-116.32,11.55-12.76,27.84-22.69,46.82-22.52v93.14h0Z"/>
        <path class="cls-46" d="m183.65,113.41V3.32c-38.49.12-60.91,37.21-68.65,66.22-9.84,36.87-4.81,82.03,22.23,112.57,11.35,12.82,27.5,22.98,46.42,23.04v-91.75h0Z"/>
        <path class="cls-44" d="m184.3,1.79v204.91c-53.48.12-113.81-19.83-139.91-64.21-28.05-47.69,3.49-98.04,52.49-121.88C123.53,7.63,154.05,1.72,184.3,1.79Z"/>
        <path class="cls-45" d="m182.85,205.16V3.32c-52.71.16-112.53,20.2-137.74,64.29-26.11,45.66,3.09,93.73,49.39,117.43,26.69,13.66,57.7,20.04,88.35,20.12Z"/>
      </g>
      <g>
        <path class="cls-55" d="m338.58,82.1c-1.53,2.9-2.39,7.23-2.57,12.92,7.8.24,15.58.51,23.33.8v11.65c-7.77.28-15.57.55-23.39.79,0,2.71.16,5.3.48,7.76.32,2.46.96,4.68,1.93,6.62.86,1.81,1.87,2.85,3.05,3.15,1.17.3,2.38.36,3.6.2.07-.01.16-.02.25-.03.09-.01.18-.02.25-.03,4.62-.66,9.23-1.34,13.83-2.05v11.65c-4.73,1.07-9.47,2.09-14.22,3.07-2.27.47-4.46.53-6.57.16-2.11-.37-4.09-1.82-5.96-4.43-2.24-3.2-3.81-7.41-4.71-12.55-.9-5.14-1.38-10.5-1.46-16.01-.04-1.19-.05-2.35-.03-3.46.02-1.12.05-2.23.08-3.35.41-12.66,2.14-21.82,5.18-27.19,3.04-5.39,7.61-7.32,13.68-6.06,4.67.92,9.34,1.9,14,2.92v11.65c-4.6-.68-9.21-1.33-13.83-1.95-3.09-.35-5.4.88-6.93,3.78Z"/>
        <g>
          <path class="cls-54" d="m13.52,87.17c-1.51,2.49-2.36,5.73-2.54,9.83,7.7-.4,15.43-.78,23.19-1.14v11.57c-7.77-.29-15.52-.59-23.24-.92,0,1.94.16,3.82.47,5.64.31,1.83.95,3.55,1.91,5.2.85,1.53,1.85,2.58,3.02,3.12,1.16.54,2.35.91,3.57,1.11.07.01.16.02.25.04.09.01.18.03.25.04,4.58.72,9.17,1.4,13.77,2.05v11.57c-4.73-1.08-9.45-2.2-14.16-3.37-2.25-.56-4.42-1.42-6.51-2.51-2.08-1.1-4.05-2.9-5.89-5.29-2.21-2.92-3.75-6.05-4.64-9.5-.88-3.45-1.36-6.82-1.43-10.26-.04-.74-.05-1.46-.03-2.16.02-.7.05-1.39.08-2.09.4-7.89,2.1-13.93,5.1-18.51,3-4.53,7.5-7.86,13.53-9.37,4.64-1.18,9.29-2.31,13.94-3.4v11.57c-4.6.68-9.19,1.39-13.77,2.13-3.07.56-5.36,2.15-6.87,4.63Z"/>
          <path class="cls-56" d="m52.18,64.98c5.48,16.67,10.97,34.98,16.46,54.67-.13-19.27-.26-38.51-.39-57.72,2.88-.51,5.76-1.01,8.64-1.49,0,27.75,0,55.49,0,83.24-3.28-.54-6.55-1.11-9.82-1.7-5.78-21.17-11.54-40.83-17.29-58.68.13,18.44.26,36.92.39,55.44-2.89-.59-5.77-1.2-8.65-1.82,0-23.24,0-46.48,0-69.72,3.55-.77,7.1-1.51,10.66-2.23Z"/>
          <path class="cls-51" d="m80.94,74.63v-14.72c11.62-1.85,23.28-3.43,34.96-4.72v16.37c-4.39.32-8.78.66-13.16,1.03v74.92c-2.93-.38-5.87-.78-8.8-1.19,0-24.32,0-48.64,0-72.95-4.34.4-8.67.82-13,1.27Z"/>
          <path class="cls-49" d="m141.08,52.69c.42.06.82.08,1.22.05.4-.03.8-.01,1.22.05,1.55.07,3.07.57,4.56,1.49,1.49.93,2.81,2.75,3.94,5.48,1.02,2.37,1.79,5.18,2.3,8.42.51,3.25.82,6.6.94,10.06,0,.65,0,1.31.03,1.96.02.66.03,1.31.03,1.96.04,7.01-.62,13.08-1.96,18.16-1.34,5.09-3.43,8.44-6.27,10.07,3.38,13.87,6.77,27.92,10.15,42.11-3.22-.17-6.43-.37-9.64-.59-2.99-13.25-5.97-26.37-8.96-39.3-3.36-.06-6.72-.12-10.08-.19,0,12.65,0,25.3,0,37.95-2.85-.27-5.7-.55-8.54-.85V54.61c7.01-.74,14.03-1.38,21.06-1.91Zm-2.04,17.71c-3.49.18-6.99.37-10.48.58,0,8.12,0,16.24,0,24.36,3.49-.05,6.98-.09,10.48-.13.08.09.15.14.23.14.08,0,.15,0,.23,0,1.81-.02,3.47-.7,4.96-2.06,1.49-1.35,2.22-4.9,2.18-10.63,0-5.92-.78-9.45-2.35-10.58-1.57-1.13-3.32-1.64-5.24-1.54,0-.05,0-.09,0-.14Z"/>
          <path class="cls-47" d="m165.65,51.23c3.35,12.79,6.7,25.72,10.05,38.72,3.41-13.05,6.82-26.17,10.22-39.31,3.31-.05,6.63-.08,9.94-.09-5.25,19.19-10.49,38.43-15.74,57.53v45.32c-2.86-.07-5.72-.15-8.58-.25,0-15.03,0-30.07,0-45.1-5.17-19.04-10.33-37.88-15.5-56.34,3.2-.18,6.39-.34,9.59-.47Z"/>
          <path class="cls-50" d="m228.66,151.44c-2.25-.9-4.32-3.83-6.22-8.81-1.63-4.23-2.65-9-3.07-14.32-.42-5.32-.62-10.78-.62-16.4v-61.05c2.86.08,5.72.18,8.57.3v55.87c-.04,9.46.38,16.68,1.25,21.67.87,4.99,3.56,7.41,8.06,7.25,3.37-.17,6.73-.35,10.1-.55v16.53c-3.61.24-7.22.46-10.83.65-2.57.13-4.99-.24-7.24-1.14Z"/>
          <path class="cls-48" d="m261.02,76.33c-1.55,3.87-2.42,9.46-2.61,16.73,7.89.08,15.78.18,23.65.3v16.23c-7.89.15-15.79.28-23.71.38,0,3.46.16,6.78.48,9.95.32,3.17.97,6.06,1.95,8.64.87,2.4,1.9,3.86,3.09,4.38,1.19.52,2.41.73,3.65.66.07,0,.16-.01.25-.02.09,0,.18-.01.25-.02,4.68-.34,9.35-.71,14.02-1.11v16.23c-4.8.56-9.61,1.07-14.42,1.53-2.3.22-4.52-.07-6.65-.89-2.13-.81-4.14-2.98-6.03-6.51-2.27-4.33-3.85-9.76-4.76-16.22-.91-6.46-1.4-13.13-1.47-19.96-.04-1.48-.05-2.91-.03-4.29.02-1.39.05-2.77.09-4.16.42-15.7,2.16-27.18,5.24-34.32,3.08-7.15,7.7-10.39,13.85-9.8,4.74.41,9.47.87,14.19,1.37v16.23c-4.67-.35-9.35-.68-14.02-.97-3.13-.11-5.47,1.76-7.02,5.62Z"/>
          <path class="cls-53" d="m283.59,55.62c3.2.38,6.4.78,9.6,1.2,4.06,23.01,8.12,45.26,12.17,66.6,4.15-21.94,8.29-42.97,12.43-62.95,3.01.5,6.03,1.02,9.04,1.56-5.61,25.69-11.23,53.45-16.85,82.89-2.93.45-5.85.89-8.78,1.31-5.86-28.6-11.73-58.95-17.6-90.6Z"/>
          <path class="cls-52" d="m375.42,130.84c-2.2-.04-4.22-1.35-6.07-4.06-1.59-2.3-2.59-5.13-3-8.39-.41-3.26-.61-6.67-.61-10.17v-38.13c2.8.66,5.59,1.33,8.38,2.02v32.88c-.04,5.57.37,9.81,1.22,12.61.85,2.82,3.47,3.81,7.86,3.03,3.28-.6,6.56-1.22,9.83-1.84v8.29c-3.51.97-7.02,1.91-10.55,2.83-2.51.65-4.86.98-7.06.93Z"/>
        </g>
      </g>
    </g>
  </g>
</svg>