<?xml version="1.0" encoding="UTF-8"?>
<svg id="Layer_2" data-name="Layer 2" xmlns="http://www.w3.org/2000/svg" viewBox="0 0 161.17 32.52">
  <defs>
    <style>
      .cls-1 {
        stroke-width: 0px;
      }
    </style>
  </defs>
  <g id="Layer_1-2" data-name="Layer 1">
    <g>
      <path class="cls-1" d="m161.17,16.32c0,2.93-.18,5.43-.54,7.5-.36,2.07-.96,3.75-1.79,5.06-.83,1.31-1.93,2.24-3.29,2.79-1.36.56-3.03.84-5,.84s-3.64-.28-5-.84c-1.36-.56-2.46-1.49-3.29-2.79-.83-1.3-1.43-2.99-1.79-5.06-.36-2.07-.54-4.57-.54-7.5s.18-5.43.54-7.5c.36-2.07.96-3.75,1.79-5.06.83-1.31,1.93-2.26,3.29-2.86C146.9.3,148.57,0,150.54,0s3.64.3,5,.9c1.36.6,2.46,1.55,3.29,2.86.83,1.3,1.43,2.99,1.79,5.06.36,2.07.54,4.57.54,7.5Zm-8,0c0-2.11-.03-3.86-.08-5.26-.06-1.39-.17-2.5-.35-3.32-.18-.82-.44-1.39-.79-1.72-.35-.32-.81-.48-1.4-.48s-1.05.16-1.4.48c-.35.32-.61.9-.79,1.72-.18.82-.3,1.93-.35,3.32-.06,1.39-.08,3.15-.08,5.26s.03,3.87.08,5.26c.06,1.39.17,2.5.35,3.32.18.82.44,1.39.79,1.72.35.32.81.48,1.4.48s1.05-.16,1.4-.48c.35-.32.61-.89.79-1.72.18-.82.3-1.93.35-3.32.06-1.39.08-3.15.08-5.26Z"/>
      <path class="cls-1" d="m124.57,17.56h-6.75c0-1.5.13-2.85.4-4.07.26-1.22.72-2.26,1.38-3.12s1.53-1.54,2.63-2.02c1.1-.48,2.48-.73,4.15-.73,1.42,0,2.74.15,3.96.44,1.22.29,2.29.9,3.19,1.8.9.91,1.62,2.21,2.15,3.92.53,1.7.79,3.96.79,6.78,0,2.58-.24,4.66-.71,6.23-.47,1.57-1.13,2.79-1.98,3.65-.85.87-1.87,1.43-3.06,1.69-1.19.26-2.51.4-3.96.4-3.2,0-5.5-.79-6.92-2.38-.72-.85-1.24-1.94-1.54-3.26-.31-1.32-.46-2.92-.46-4.8h6.75v1.54c0,1.5.19,2.52.56,3.08.38.56.91.84,1.6.84.42,0,.77-.11,1.06-.33.29-.22.52-.61.69-1.17.17-.56.29-1.31.35-2.27.07-.95.1-2.16.1-3.63s-.04-2.68-.1-3.63c-.07-.95-.19-1.72-.35-2.29s-.4-.97-.69-1.19c-.29-.22-.65-.33-1.06-.33-.81,0-1.36.34-1.67,1.01-.17.38-.29.87-.38,1.47-.08.6-.12,1.39-.12,2.35Z"/>
      <path class="cls-1" d="m115.49,8.23v5.32h-2.5s0,12.67,0,12.67c0,1.32-.12,2.38-.35,3.19-.24.81-.61,1.42-1.13,1.83-.51.41-1.17.67-1.98.77-.81.1-1.78.15-2.92.15-.64,0-1.31-.02-2-.07-.69-.04-1.39-.07-2.08-.07v-5.28h1.17c.61,0,1.06-.14,1.35-.42.29-.28.44-.75.44-1.43v-11.35s-2.96,0-2.96,0v-5.32h2.96s0-7,0-7h7.5v7s2.5,0,2.5,0Z"/>
      <path class="cls-1" d="m88.31,32.03h-7.25c.31-.62.5-1.35.58-2.2.08-.85.12-1.83.12-2.95v-11.62c0-1.55.22-2.82.65-3.81.43-.98,1.04-1.76,1.83-2.33.79-.57,1.74-.97,2.83-1.19,1.1-.22,2.3-.33,3.6-.33.86,0,1.79.1,2.79.29,1,.19,1.93.57,2.79,1.14.86.57,1.58,1.38,2.17,2.42.58,1.04.88,2.43.88,4.16h-6.5c-.03-1.26-.21-2.1-.54-2.53-.33-.42-.86-.64-1.58-.64-1.28,0-1.92.73-1.92,2.2,0,.73.17,1.3.5,1.69.33.4.9.7,1.71.9l2.96.75c1.2.29,2.2.65,3,1.08.81.43,1.44.94,1.92,1.54.47.6.81,1.31,1.02,2.13.21.82.31,1.79.31,2.9,0,1.03-.11,1.97-.33,2.82-.22.85-.58,1.58-1.08,2.2-.5.62-1.15,1.08-1.94,1.39-.79.31-1.76.46-2.9.46s-2.2-.26-3.11-.79c-.9-.53-1.56-1.32-1.98-2.38h-.08c-.06.5-.11.97-.17,1.41-.06.44-.15.87-.29,1.28Zm2.79-4.71c.56,0,1-.23,1.33-.7.33-.47.5-1.1.5-1.89,0-.79-.11-1.43-.33-1.91-.22-.48-.63-.87-1.21-1.17-.56-.26-1.06-.43-1.52-.51-.46-.07-.8-.27-1.02-.59h-.08s0,2.86,0,2.86c0,1.32.18,2.3.54,2.95s.96.97,1.79.97Z"/>
      <path class="cls-1" d="m76.73.62v31.42h-7.25V8.62s-.08,0-.08,0l-4.13,23.41h-5.59s-4.13-23.41-4.13-23.41h-.08s0,23.41,0,23.41h-7.25V.62h11.09s3.13,18.61,3.13,18.61h.08s3.13-18.61,3.13-18.61h11.09Z"/>
      <path class="cls-1" d="m43.18.62v31.42h-18.01v-6.69h10.25s0-6.25,0-6.25h-9.25v-6.42h9.25s0-5.37,0-5.37h-9.88V.62h17.63Z"/>
      <path class="cls-1" d="m20.67.62v31.42h-11.25c-2.25,0-4-.43-5.25-1.3-1.25-.87-2.19-2.02-2.81-3.48-.63-1.45-1.01-3.12-1.15-5.02C.07,20.35,0,18.38,0,16.32s.07-4.03.21-5.92c.14-1.89.52-3.56,1.15-5.02.63-1.45,1.56-2.61,2.81-3.48,1.25-.86,3-1.3,5.25-1.3h11.25Zm-7.75,25.52V6.51s-1.54,0-1.54,0c-.75,0-1.35.11-1.79.33-.44.22-.79.68-1.02,1.39s-.39,1.7-.46,2.99c-.07,1.29-.1,2.99-.1,5.1s.04,3.81.1,5.1c.07,1.29.22,2.29.46,2.99s.58,1.17,1.02,1.39c.44.22,1.04.33,1.79.33h1.54Z"/>
    </g>
  </g>
</svg>