<?xml version="1.0" encoding="UTF-8"?>
<svg id="Layer_2" data-name="Layer 2" xmlns="http://www.w3.org/2000/svg" viewBox="0 0 140 63.11">
  <defs>
    <style>
      .cls-1 {
        stroke-width: 0px;
      }
    </style>
  </defs>
  <g id="Layer_1-2" data-name="Layer 1">
    <g>
      <path class="cls-1" d="m86.63,4.42v15.57h-4.6V4.42s-3.46,0-3.46,0V0h11.47v4.42h-3.41Z"/>
      <path class="cls-1" d="m76.55,0v19.99h-4.6v-8.23s-2.82,0-2.82,0v8.23h-4.6V0h4.6v7.34s2.82,0,2.82,0V0h4.6Z"/>
      <path class="cls-1" d="m61.38,0v19.99h-10.67v-4.26h6.08s0-3.98,0-3.98h-5.49v-4.09h5.49s0-3.42,0-3.42h-5.86V0h10.45Z"/>
      <path class="cls-1" d="m131.55,22.51l8.45,39.98h-9.64s-.94-7-.94-7h-7.31s-.94,7-.94,7h-9.78s8.6-39.98,8.6-39.98h11.56Zm-5.83,8.18l-2.52,16.97h5.14s-2.52-16.97-2.52-16.97h-.1Z"/>
      <path class="cls-1" d="m108.67,22.51v39.98h-8.6v-29.79s-.1,0-.1,0l-4.89,29.79h-6.62s-4.89-29.79-4.89-29.79h-.1s0,29.79,0,29.79h-8.6V22.51h13.14s3.71,23.69,3.71,23.69h.1s3.71-23.69,3.71-23.69h13.14Z"/>
      <path class="cls-1" d="m69.68,22.51v39.98h-9.19V22.51h9.19Z"/>
      <path class="cls-1" d="m43.09,40.76v7.06h-3.26c0,1.72.07,3.13.22,4.23.15,1.1.35,1.96.62,2.58.26.62.59,1.04.96,1.26.38.22.82.34,1.31.34.69,0,1.24-.2,1.66-.62.41-.41.73-1.14.94-2.18.21-1.04.35-2.45.42-4.23.07-1.77.1-4,.1-6.69s-.03-4.92-.1-6.69c-.07-1.77-.21-3.18-.42-4.23-.21-1.04-.54-1.77-.99-2.18s-1.05-.62-1.8-.62c-1.09,0-1.8.58-2.13,1.74-.33.97-.49,2.52-.49,4.65h-8.9c0-2.43.28-4.49.84-6.19s1.33-3.09,2.32-4.17c.99-1.08,2.17-1.87,3.53-2.35,1.37-.48,2.86-.73,4.47-.73,2.7,0,4.91.46,6.62,1.37,1.71.92,3.06,2.25,4.03,4,.97,1.75,1.63,3.92,1.98,6.5.35,2.58.52,5.54.52,8.9s-.09,6.27-.27,8.85c-.18,2.58-.62,4.74-1.31,6.5-.69,1.76-1.71,3.07-3.06,3.95-1.35.88-3.2,1.32-5.54,1.32-.79,0-1.57-.06-2.35-.17-.77-.11-1.5-.31-2.17-.59-.67-.28-1.28-.7-1.83-1.26-.54-.56-.96-1.27-1.26-2.13h-.1s-.2,3.53-.2,3.53h-6.23v-21.73h11.86Z"/>
      <path class="cls-1" d="m20.16,22.51l8.45,39.98h-9.64s-.94-7-.94-7h-7.31s-.94,7-.94,7H0S8.6,22.51,8.6,22.51h11.56Zm-5.83,8.18l-2.52,16.97h5.14s-2.52-16.97-2.52-16.97h-.1Z"/>
    </g>
  </g>
</svg>