<?xml version="1.0" encoding="UTF-8"?>
<svg id="Layer_2" data-name="Layer 2" xmlns="http://www.w3.org/2000/svg" viewBox="0 0 131.56 62.58">
  <defs>
    <style>
      .cls-1 {
        stroke-width: 0px;
      }
    </style>
  </defs>
  <g id="Layer_1-2" data-name="Layer 1">
    <g>
      <path class="cls-1" d="m46.75,4.42V0h10.82v4.42h-3.27v15.56h-4.34V4.42h-3.22Z"/>
      <path class="cls-1" d="m64.06,0v7.33h2.66V0h4.34v19.98h-4.34v-8.23h-2.66v8.23h-4.34V0h4.34Z"/>
      <path class="cls-1" d="m84.14,0v4.25h-5.53v3.41h5.18v4.09h-5.18v3.97h5.74v4.25h-10.08V0h9.87Z"/>
      <path class="cls-1" d="m14,32.57c0-1.19-.2-2.21-.61-3.05-.4-.84-1.03-1.26-1.87-1.26-.93,0-1.62.36-2.05,1.09-.44.73-.65,1.54-.65,2.44,0,1.31.35,2.34,1.05,3.11.7.77,1.58,1.43,2.64,1.99,1.06.56,2.19,1.13,3.41,1.71,1.21.58,2.35,1.33,3.41,2.27,1.06.93,1.94,2.16,2.64,3.67.7,1.51,1.05,3.48,1.05,5.9,0,4.25-1.01,7.34-3.03,9.26-2.02,1.92-4.95,2.88-8.77,2.88-1.8,0-3.4-.18-4.78-.53-1.38-.35-2.55-.97-3.5-1.85-.95-.88-1.67-2.02-2.17-3.44-.5-1.42-.75-3.17-.75-5.26v-1.4h8.4v.95c0,1.72.26,2.92.79,3.61.53.69,1.21,1.04,2.05,1.04.9,0,1.59-.37,2.08-1.12.48-.75.72-1.66.72-2.74,0-1.31-.33-2.34-1-3.11-.67-.76-1.51-1.42-2.52-1.96-1.01-.54-2.11-1.09-3.29-1.65-1.18-.56-2.28-1.29-3.29-2.18-1.01-.9-1.85-2.07-2.52-3.53-.67-1.46-1-3.36-1-5.71,0-4.07.9-7.16,2.71-9.29,1.8-2.13,4.54-3.19,8.21-3.19s6.54.98,8.23,2.94c1.69,1.96,2.54,5.09,2.54,9.37h-8.12v-.95Z"/>
      <path class="cls-1" d="m41.15,29.5c-.37-.82-.98-1.23-1.82-1.23-.65,0-1.17.21-1.56.62-.39.41-.68,1.14-.89,2.18-.2,1.04-.33,2.45-.4,4.23-.06,1.77-.09,4-.09,6.69s.03,4.92.09,6.69c.06,1.77.19,3.18.4,4.23.2,1.04.5,1.77.89,2.18.39.41.91.62,1.56.62.53,0,.96-.16,1.31-.48.34-.32.61-.85.79-1.6.19-.75.32-1.74.4-2.99.08-1.25.12-2.83.12-4.73h8.4v2.97c0,2.8-.31,5.09-.93,6.88s-1.45,3.2-2.47,4.23c-1.03,1.03-2.2,1.72-3.52,2.07-1.32.35-2.68.53-4.08.53-2.43,0-4.42-.36-5.97-1.06-1.56-.71-2.77-1.89-3.64-3.55-.87-1.66-1.47-3.81-1.8-6.44-.33-2.63-.49-5.81-.49-9.54s.19-7.03.58-9.68c.39-2.65,1.05-4.79,1.98-6.44.93-1.64,2.16-2.83,3.69-3.55,1.52-.73,3.41-1.09,5.65-1.09,1.96,0,3.62.3,4.99.9s2.48,1.45,3.34,2.55c.86,1.1,1.48,2.43,1.87,3.97.39,1.55.58,3.29.58,5.23v2.52h-8.4v-2.24c0-2.28-.19-3.82-.56-4.65Z"/>
      <path class="cls-1" d="m75.53,22v8.51h-11.06v6.83h10.36v8.17h-10.36v7.95h11.48v8.51h-20.15V22h19.74Z"/>
      <path class="cls-1" d="m91.16,22l5.6,24.63h.09v-24.63h8.12v39.96h-9.52l-5.78-24.68h-.09v24.68h-8.12V22h9.7Z"/>
      <path class="cls-1" d="m131.14,22v8.51h-11.06v6.83h10.36v8.17h-10.36v7.95h11.48v8.51h-20.15V22h19.74Z"/>
    </g>
  </g>
</svg>