<?xml version="1.0" encoding="UTF-8"?>
<svg id="Layer_2" data-name="Layer 2" xmlns="http://www.w3.org/2000/svg" viewBox="0 0 128.4 62.58">
  <defs>
    <style>
      .cls-1 {
        stroke-width: 0px;
      }
    </style>
  </defs>
  <g id="Layer_1-2" data-name="Layer 1">
    <g>
      <path class="cls-1" d="m45.63,4.42V0h10.82v4.42h-3.27v15.56h-4.34V4.42h-3.22Z"/>
      <path class="cls-1" d="m62.94,0v7.33h2.66V0h4.34v19.98h-4.34v-8.23h-2.66v8.23h-4.34V0h4.34Z"/>
      <path class="cls-1" d="m83.02,0v4.25h-5.53v3.41h5.18v4.09h-5.18v3.97h5.74v4.25h-10.08V0h9.87Z"/>
      <path class="cls-1" d="m0,30.84v-8.84h21.65v8.84h-6.53v31.12H6.44v-31.12H0Z"/>
      <path class="cls-1" d="m25.57,32.43c.4-2.63,1.07-4.78,2.01-6.44.93-1.66,2.16-2.87,3.69-3.64,1.52-.76,3.39-1.15,5.6-1.15s4.07.38,5.6,1.15c1.52.77,2.75,1.98,3.69,3.64.93,1.66,1.6,3.81,2.01,6.44.4,2.63.61,5.81.61,9.54s-.2,6.91-.61,9.54c-.4,2.63-1.07,4.78-2.01,6.44-.93,1.66-2.16,2.85-3.69,3.55-1.52.71-3.39,1.06-5.6,1.06s-4.07-.36-5.6-1.06c-1.52-.71-2.75-1.89-3.69-3.55-.93-1.66-1.6-3.81-2.01-6.44-.4-2.63-.61-5.81-.61-9.54s.2-6.91.61-9.54Zm8.44,16.23c.06,1.77.19,3.18.4,4.23.2,1.04.5,1.77.89,2.18.39.41.91.62,1.56.62s1.17-.2,1.56-.62c.39-.41.68-1.14.89-2.18.2-1.04.33-2.45.4-4.23.06-1.77.09-4,.09-6.69s-.03-4.92-.09-6.69c-.06-1.77-.19-3.18-.4-4.23-.2-1.04-.5-1.77-.89-2.18-.39-.41-.91-.62-1.56-.62s-1.17.21-1.56.62c-.39.41-.68,1.14-.89,2.18-.2,1.04-.33,2.45-.4,4.23-.06,1.77-.09,4-.09,6.69s.03,4.92.09,6.69Z"/>
      <path class="cls-1" d="m53.84,32.43c.4-2.63,1.07-4.78,2.01-6.44.93-1.66,2.16-2.87,3.69-3.64,1.52-.76,3.39-1.15,5.6-1.15s4.07.38,5.6,1.15c1.52.77,2.75,1.98,3.69,3.64.93,1.66,1.6,3.81,2.01,6.44.4,2.63.61,5.81.61,9.54s-.2,6.91-.61,9.54c-.4,2.63-1.07,4.78-2.01,6.44-.93,1.66-2.16,2.85-3.69,3.55-1.52.71-3.39,1.06-5.6,1.06s-4.07-.36-5.6-1.06c-1.52-.71-2.75-1.89-3.69-3.55-.93-1.66-1.6-3.81-2.01-6.44-.4-2.63-.61-5.81-.61-9.54s.2-6.91.61-9.54Zm8.44,16.23c.06,1.77.19,3.18.4,4.23.2,1.04.5,1.77.89,2.18.39.41.91.62,1.56.62s1.17-.2,1.56-.62c.39-.41.68-1.14.89-2.18.2-1.04.33-2.45.4-4.23.06-1.77.09-4,.09-6.69s-.03-4.92-.09-6.69c-.06-1.77-.19-3.18-.4-4.23-.2-1.04-.5-1.77-.89-2.18-.39-.41-.91-.62-1.56-.62s-1.17.21-1.56.62c-.39.41-.68,1.14-.89,2.18-.2,1.04-.33,2.45-.4,4.23-.06,1.77-.09,4-.09,6.69s.03,4.92.09,6.69Z"/>
      <path class="cls-1" d="m91.16,22v31.46h10.68v8.51h-19.36V22h8.68Z"/>
      <path class="cls-1" d="m119.39,32.57c0-1.19-.2-2.21-.61-3.05-.4-.84-1.03-1.26-1.87-1.26-.93,0-1.62.36-2.05,1.09-.44.73-.65,1.54-.65,2.44,0,1.31.35,2.34,1.05,3.11.7.77,1.58,1.43,2.64,1.99,1.06.56,2.19,1.13,3.41,1.71,1.21.58,2.35,1.33,3.41,2.27,1.06.93,1.94,2.16,2.64,3.67.7,1.51,1.05,3.48,1.05,5.9,0,4.25-1.01,7.34-3.03,9.26-2.02,1.92-4.95,2.88-8.77,2.88-1.8,0-3.4-.18-4.78-.53-1.38-.35-2.55-.97-3.5-1.85-.95-.88-1.67-2.02-2.17-3.44-.5-1.42-.75-3.17-.75-5.26v-1.4h8.4v.95c0,1.72.26,2.92.79,3.61.53.69,1.21,1.04,2.05,1.04.9,0,1.59-.37,2.08-1.12.48-.75.72-1.66.72-2.74,0-1.31-.33-2.34-1-3.11-.67-.76-1.51-1.42-2.52-1.96-1.01-.54-2.11-1.09-3.29-1.65-1.18-.56-2.28-1.29-3.29-2.18s-1.85-2.07-2.52-3.53c-.67-1.46-1-3.36-1-5.71,0-4.07.9-7.16,2.71-9.29,1.8-2.13,4.54-3.19,8.21-3.19s6.54.98,8.23,2.94c1.69,1.96,2.54,5.09,2.54,9.37h-8.12v-.95Z"/>
    </g>
  </g>
</svg>